<mxfile host="app.diagrams.net" agent="Mozilla/5.0 (X11; Linux x86_64; rv:136.0) Gecko/20100101 Firefox/136.0" version="26.1.0" pages="6">
  <diagram name="Page-1" id="JD6xYYmYzcf4hpK9CV4v">
    <mxGraphModel dx="945" dy="571" grid="1" gridSize="10" guides="1" tooltips="1" connect="1" arrows="1" fold="1" page="1" pageScale="1" pageWidth="850" pageHeight="1100" math="0" shadow="0">
      <root>
        <mxCell id="0" />
        <mxCell id="1" parent="0" />
        <mxCell id="3_Epr1_zHtTMZQ9kOwUO-1" style="edgeStyle=orthogonalEdgeStyle;rounded=0;orthogonalLoop=1;jettySize=auto;html=1;exitX=0;exitY=0.5;exitDx=0;exitDy=0;strokeColor=default;align=center;verticalAlign=middle;fontFamily=Helvetica;fontSize=11;fontColor=default;labelBackgroundColor=default;startArrow=none;startFill=0;endArrow=oval;endFill=0;entryX=0;entryY=0.5;entryDx=0;entryDy=0;" edge="1" parent="1" source="3_Epr1_zHtTMZQ9kOwUO-2" target="3_Epr1_zHtTMZQ9kOwUO-17">
          <mxGeometry relative="1" as="geometry" />
        </mxCell>
        <mxCell id="3_Epr1_zHtTMZQ9kOwUO-2" value="FILM" style="rounded=0;whiteSpace=wrap;html=1;" vertex="1" parent="1">
          <mxGeometry x="45" y="200" width="90" height="40" as="geometry" />
        </mxCell>
        <mxCell id="3_Epr1_zHtTMZQ9kOwUO-3" value="&lt;div&gt;recitato da&lt;/div&gt;" style="shape=rhombus;perimeter=rhombusPerimeter;whiteSpace=wrap;html=1;align=center;" vertex="1" parent="1">
          <mxGeometry x="245" y="190" width="120" height="60" as="geometry" />
        </mxCell>
        <mxCell id="3_Epr1_zHtTMZQ9kOwUO-4" value="&lt;div&gt;ATTORI&lt;/div&gt;" style="whiteSpace=wrap;html=1;align=center;" vertex="1" parent="1">
          <mxGeometry x="435" y="200" width="100" height="40" as="geometry" />
        </mxCell>
        <mxCell id="3_Epr1_zHtTMZQ9kOwUO-5" value="" style="endArrow=none;html=1;rounded=0;exitX=1;exitY=0.5;exitDx=0;exitDy=0;" edge="1" parent="1" source="3_Epr1_zHtTMZQ9kOwUO-2">
          <mxGeometry relative="1" as="geometry">
            <mxPoint x="145" y="210" as="sourcePoint" />
            <mxPoint x="245" y="220" as="targetPoint" />
          </mxGeometry>
        </mxCell>
        <mxCell id="3_Epr1_zHtTMZQ9kOwUO-6" value="&lt;div&gt;(1,n)&lt;/div&gt;" style="edgeLabel;html=1;align=center;verticalAlign=middle;resizable=0;points=[];" connectable="0" vertex="1" parent="3_Epr1_zHtTMZQ9kOwUO-5">
          <mxGeometry x="0.6364" y="-4" relative="1" as="geometry">
            <mxPoint x="-40" y="-4" as="offset" />
          </mxGeometry>
        </mxCell>
        <mxCell id="3_Epr1_zHtTMZQ9kOwUO-7" style="edgeStyle=orthogonalEdgeStyle;rounded=0;orthogonalLoop=1;jettySize=auto;html=1;entryX=1;entryY=0.5;entryDx=0;entryDy=0;exitX=0;exitY=0.5;exitDx=0;exitDy=0;endArrow=none;endFill=0;" edge="1" parent="1" source="3_Epr1_zHtTMZQ9kOwUO-4" target="3_Epr1_zHtTMZQ9kOwUO-3">
          <mxGeometry relative="1" as="geometry" />
        </mxCell>
        <mxCell id="3_Epr1_zHtTMZQ9kOwUO-8" value="&lt;div&gt;(1,n)&lt;/div&gt;" style="edgeLabel;html=1;align=center;verticalAlign=middle;resizable=0;points=[];" connectable="0" vertex="1" parent="3_Epr1_zHtTMZQ9kOwUO-7">
          <mxGeometry x="0.3429" relative="1" as="geometry">
            <mxPoint x="6" as="offset" />
          </mxGeometry>
        </mxCell>
        <mxCell id="3_Epr1_zHtTMZQ9kOwUO-9" style="edgeStyle=orthogonalEdgeStyle;rounded=0;orthogonalLoop=1;jettySize=auto;html=1;entryX=1;entryY=0.5;entryDx=0;entryDy=0;endArrow=none;endFill=0;startArrow=oval;startFill=0;" edge="1" parent="1" source="3_Epr1_zHtTMZQ9kOwUO-10" target="3_Epr1_zHtTMZQ9kOwUO-4">
          <mxGeometry relative="1" as="geometry">
            <Array as="points">
              <mxPoint x="560" y="185" />
              <mxPoint x="560" y="220" />
            </Array>
          </mxGeometry>
        </mxCell>
        <mxCell id="3_Epr1_zHtTMZQ9kOwUO-10" value="cognome" style="text;strokeColor=none;fillColor=none;spacingLeft=4;spacingRight=4;overflow=hidden;rotatable=0;points=[[0,0.5],[1,0.5]];portConstraint=eastwest;fontSize=12;whiteSpace=wrap;html=1;" vertex="1" parent="1">
          <mxGeometry x="585" y="170" width="60" height="30" as="geometry" />
        </mxCell>
        <mxCell id="3_Epr1_zHtTMZQ9kOwUO-11" style="edgeStyle=orthogonalEdgeStyle;rounded=0;orthogonalLoop=1;jettySize=auto;html=1;entryX=1;entryY=0.5;entryDx=0;entryDy=0;startArrow=oval;startFill=0;endArrow=none;endFill=0;" edge="1" parent="1" source="3_Epr1_zHtTMZQ9kOwUO-12" target="3_Epr1_zHtTMZQ9kOwUO-4">
          <mxGeometry relative="1" as="geometry" />
        </mxCell>
        <mxCell id="3_Epr1_zHtTMZQ9kOwUO-12" value="&lt;div&gt;nome&lt;/div&gt;" style="text;strokeColor=none;fillColor=none;spacingLeft=4;spacingRight=4;overflow=hidden;rotatable=0;points=[[0,0.5],[1,0.5]];portConstraint=eastwest;fontSize=12;whiteSpace=wrap;html=1;" vertex="1" parent="1">
          <mxGeometry x="587" y="230" width="60" height="30" as="geometry" />
        </mxCell>
        <mxCell id="3_Epr1_zHtTMZQ9kOwUO-13" style="edgeStyle=orthogonalEdgeStyle;rounded=0;orthogonalLoop=1;jettySize=auto;html=1;entryX=0;entryY=0.5;entryDx=0;entryDy=0;strokeColor=default;align=center;verticalAlign=middle;fontFamily=Helvetica;fontSize=11;fontColor=default;labelBackgroundColor=default;startArrow=oval;startFill=1;endArrow=none;endFill=0;exitX=0;exitY=0.5;exitDx=0;exitDy=0;" edge="1" parent="1" source="3_Epr1_zHtTMZQ9kOwUO-14" target="3_Epr1_zHtTMZQ9kOwUO-2">
          <mxGeometry relative="1" as="geometry" />
        </mxCell>
        <mxCell id="3_Epr1_zHtTMZQ9kOwUO-14" value="titolo" style="text;strokeColor=none;fillColor=none;spacingLeft=4;spacingRight=4;overflow=hidden;rotatable=0;points=[[0,0.5],[1,0.5]];portConstraint=eastwest;fontSize=12;whiteSpace=wrap;html=1;" vertex="1" parent="1">
          <mxGeometry x="45" y="40" width="40" height="30" as="geometry" />
        </mxCell>
        <mxCell id="3_Epr1_zHtTMZQ9kOwUO-15" style="edgeStyle=orthogonalEdgeStyle;rounded=0;orthogonalLoop=1;jettySize=auto;html=1;entryX=0;entryY=0.5;entryDx=0;entryDy=0;exitX=0;exitY=0.5;exitDx=0;exitDy=0;startArrow=oval;startFill=0;endArrow=none;endFill=0;" edge="1" parent="1" source="3_Epr1_zHtTMZQ9kOwUO-16" target="3_Epr1_zHtTMZQ9kOwUO-2">
          <mxGeometry relative="1" as="geometry" />
        </mxCell>
        <mxCell id="3_Epr1_zHtTMZQ9kOwUO-16" value="anno" style="text;strokeColor=none;fillColor=none;spacingLeft=4;spacingRight=4;overflow=hidden;rotatable=0;points=[[0,0.5],[1,0.5]];portConstraint=eastwest;fontSize=12;whiteSpace=wrap;html=1;" vertex="1" parent="1">
          <mxGeometry x="45" y="55" width="40" height="30" as="geometry" />
        </mxCell>
        <mxCell id="3_Epr1_zHtTMZQ9kOwUO-17" value="nazione" style="text;strokeColor=none;fillColor=none;spacingLeft=4;spacingRight=4;overflow=hidden;rotatable=0;points=[[0,0.5],[1,0.5]];portConstraint=eastwest;fontSize=11;whiteSpace=wrap;html=1;fontFamily=Helvetica;fontColor=default;labelBackgroundColor=default;" vertex="1" parent="1">
          <mxGeometry x="45" y="70" width="60" height="30" as="geometry" />
        </mxCell>
        <mxCell id="3_Epr1_zHtTMZQ9kOwUO-18" style="edgeStyle=orthogonalEdgeStyle;rounded=0;orthogonalLoop=1;jettySize=auto;html=1;entryX=0;entryY=0.5;entryDx=0;entryDy=0;exitX=0;exitY=0.5;exitDx=0;exitDy=0;endArrow=none;endFill=0;startArrow=oval;startFill=0;" edge="1" parent="1" source="3_Epr1_zHtTMZQ9kOwUO-19" target="3_Epr1_zHtTMZQ9kOwUO-2">
          <mxGeometry relative="1" as="geometry" />
        </mxCell>
        <mxCell id="3_Epr1_zHtTMZQ9kOwUO-19" value="&lt;div&gt;durata&lt;/div&gt;" style="text;strokeColor=none;fillColor=none;spacingLeft=4;spacingRight=4;overflow=hidden;rotatable=0;points=[[0,0.5],[1,0.5]];portConstraint=eastwest;fontSize=12;whiteSpace=wrap;html=1;" vertex="1" parent="1">
          <mxGeometry x="45" y="85" width="60" height="30" as="geometry" />
        </mxCell>
        <mxCell id="3_Epr1_zHtTMZQ9kOwUO-20" style="edgeStyle=orthogonalEdgeStyle;rounded=0;orthogonalLoop=1;jettySize=auto;html=1;entryX=0;entryY=0.5;entryDx=0;entryDy=0;endArrow=none;endFill=0;startArrow=none;startFill=0;" edge="1" parent="1" source="3_Epr1_zHtTMZQ9kOwUO-21" target="3_Epr1_zHtTMZQ9kOwUO-2">
          <mxGeometry relative="1" as="geometry" />
        </mxCell>
        <mxCell id="3_Epr1_zHtTMZQ9kOwUO-21" value="&lt;div&gt;registra&lt;/div&gt;" style="ellipse;whiteSpace=wrap;html=1;align=center;" vertex="1" parent="1">
          <mxGeometry x="40" y="130" width="100" height="40" as="geometry" />
        </mxCell>
        <mxCell id="3_Epr1_zHtTMZQ9kOwUO-22" style="edgeStyle=orthogonalEdgeStyle;rounded=0;orthogonalLoop=1;jettySize=auto;html=1;entryX=1;entryY=0.5;entryDx=0;entryDy=0;endArrow=none;endFill=0;startArrow=oval;startFill=0;" edge="1" parent="1" source="3_Epr1_zHtTMZQ9kOwUO-23" target="3_Epr1_zHtTMZQ9kOwUO-21">
          <mxGeometry relative="1" as="geometry" />
        </mxCell>
        <mxCell id="3_Epr1_zHtTMZQ9kOwUO-23" value="cognome" style="text;strokeColor=none;fillColor=none;spacingLeft=4;spacingRight=4;overflow=hidden;rotatable=0;points=[[0,0.5],[1,0.5]];portConstraint=eastwest;fontSize=12;whiteSpace=wrap;html=1;" vertex="1" parent="1">
          <mxGeometry x="165" y="115" width="60" height="30" as="geometry" />
        </mxCell>
        <mxCell id="3_Epr1_zHtTMZQ9kOwUO-24" style="edgeStyle=orthogonalEdgeStyle;rounded=0;orthogonalLoop=1;jettySize=auto;html=1;entryX=0;entryY=0.5;entryDx=0;entryDy=0;" edge="1" parent="1">
          <mxGeometry relative="1" as="geometry">
            <mxPoint x="50" y="285" as="sourcePoint" />
            <mxPoint x="50" y="285" as="targetPoint" />
          </mxGeometry>
        </mxCell>
        <mxCell id="3_Epr1_zHtTMZQ9kOwUO-25" style="edgeStyle=orthogonalEdgeStyle;rounded=0;orthogonalLoop=1;jettySize=auto;html=1;entryX=0;entryY=0.5;entryDx=0;entryDy=0;exitX=0;exitY=0.5;exitDx=0;exitDy=0;startArrow=oval;startFill=0;endArrow=none;endFill=0;" edge="1" parent="1" source="3_Epr1_zHtTMZQ9kOwUO-26" target="3_Epr1_zHtTMZQ9kOwUO-2">
          <mxGeometry relative="1" as="geometry" />
        </mxCell>
        <mxCell id="3_Epr1_zHtTMZQ9kOwUO-26" value="&lt;div&gt;genere&lt;/div&gt;" style="text;strokeColor=none;fillColor=none;spacingLeft=4;spacingRight=4;overflow=hidden;rotatable=0;points=[[0,0.5],[1,0.5]];portConstraint=eastwest;fontSize=12;whiteSpace=wrap;html=1;" vertex="1" parent="1">
          <mxGeometry x="45" y="100" width="60" height="30" as="geometry" />
        </mxCell>
        <mxCell id="3_Epr1_zHtTMZQ9kOwUO-27" style="edgeStyle=orthogonalEdgeStyle;rounded=0;orthogonalLoop=1;jettySize=auto;html=1;entryX=1;entryY=0.5;entryDx=0;entryDy=0;endArrow=none;endFill=0;startArrow=oval;startFill=0;" edge="1" parent="1" source="3_Epr1_zHtTMZQ9kOwUO-28" target="3_Epr1_zHtTMZQ9kOwUO-21">
          <mxGeometry relative="1" as="geometry" />
        </mxCell>
        <mxCell id="3_Epr1_zHtTMZQ9kOwUO-28" value="nome" style="text;strokeColor=none;fillColor=none;spacingLeft=4;spacingRight=4;overflow=hidden;rotatable=0;points=[[0,0.5],[1,0.5]];portConstraint=eastwest;fontSize=12;whiteSpace=wrap;html=1;" vertex="1" parent="1">
          <mxGeometry x="165" y="154" width="60" height="30" as="geometry" />
        </mxCell>
        <mxCell id="3_Epr1_zHtTMZQ9kOwUO-29" style="edgeStyle=orthogonalEdgeStyle;rounded=0;orthogonalLoop=1;jettySize=auto;html=1;exitX=0.5;exitY=0;exitDx=0;exitDy=0;entryX=0.5;entryY=1;entryDx=0;entryDy=0;endArrow=none;endFill=0;" edge="1" parent="1" source="3_Epr1_zHtTMZQ9kOwUO-36" target="3_Epr1_zHtTMZQ9kOwUO-2">
          <mxGeometry relative="1" as="geometry">
            <mxPoint x="90" y="285" as="sourcePoint" />
          </mxGeometry>
        </mxCell>
        <mxCell id="3_Epr1_zHtTMZQ9kOwUO-30" value="(0,n)" style="edgeLabel;html=1;align=center;verticalAlign=middle;resizable=0;points=[];" connectable="0" vertex="1" parent="3_Epr1_zHtTMZQ9kOwUO-29">
          <mxGeometry x="0.2593" y="2" relative="1" as="geometry">
            <mxPoint y="4" as="offset" />
          </mxGeometry>
        </mxCell>
        <mxCell id="3_Epr1_zHtTMZQ9kOwUO-31" style="edgeStyle=orthogonalEdgeStyle;rounded=0;orthogonalLoop=1;jettySize=auto;html=1;exitX=0;exitY=0.5;exitDx=0;exitDy=0;entryX=1;entryY=0.5;entryDx=0;entryDy=0;startArrow=oval;startFill=0;endArrow=none;endFill=0;" edge="1" parent="1">
          <mxGeometry relative="1" as="geometry">
            <mxPoint x="194" y="319.98" as="sourcePoint" />
            <mxPoint x="150" y="319.98" as="targetPoint" />
          </mxGeometry>
        </mxCell>
        <mxCell id="3_Epr1_zHtTMZQ9kOwUO-32" style="edgeStyle=orthogonalEdgeStyle;rounded=0;orthogonalLoop=1;jettySize=auto;html=1;exitX=1.001;exitY=0.43;exitDx=0;exitDy=0;endArrow=oval;endFill=0;exitPerimeter=0;" edge="1" parent="1" source="3_Epr1_zHtTMZQ9kOwUO-36">
          <mxGeometry relative="1" as="geometry">
            <mxPoint x="150" y="319.98" as="sourcePoint" />
            <mxPoint x="194" y="289.9975438596491" as="targetPoint" />
            <Array as="points">
              <mxPoint x="135" y="320" />
              <mxPoint x="151" y="320" />
              <mxPoint x="151" y="290" />
            </Array>
          </mxGeometry>
        </mxCell>
        <mxCell id="3_Epr1_zHtTMZQ9kOwUO-33" value="&lt;div&gt;voto&lt;/div&gt;" style="text;strokeColor=none;fillColor=none;spacingLeft=4;spacingRight=4;overflow=hidden;rotatable=0;points=[[0,0.5],[1,0.5]];portConstraint=eastwest;fontSize=12;whiteSpace=wrap;html=1;" vertex="1" parent="1">
          <mxGeometry x="194" y="270" width="80" height="30" as="geometry" />
        </mxCell>
        <mxCell id="3_Epr1_zHtTMZQ9kOwUO-34" value="recensione" style="text;strokeColor=none;fillColor=none;spacingLeft=4;spacingRight=4;overflow=hidden;rotatable=0;points=[[0,0.5],[1,0.5]];portConstraint=eastwest;fontSize=12;whiteSpace=wrap;html=1;" vertex="1" parent="1">
          <mxGeometry x="194" y="300" width="70" height="30" as="geometry" />
        </mxCell>
        <mxCell id="3_Epr1_zHtTMZQ9kOwUO-35" value="" style="html=1;verticalAlign=bottom;startArrow=oval;startFill=1;endArrow=none;startSize=8;curved=0;rounded=0;endFill=0;" edge="1" parent="1">
          <mxGeometry width="60" relative="1" as="geometry">
            <mxPoint x="575" y="267.47" as="sourcePoint" />
            <mxPoint x="575" y="170.00164556962025" as="targetPoint" />
          </mxGeometry>
        </mxCell>
        <mxCell id="3_Epr1_zHtTMZQ9kOwUO-36" value="valutazione" style="ellipse;whiteSpace=wrap;html=1;" vertex="1" parent="1">
          <mxGeometry x="45" y="290" width="90" height="40" as="geometry" />
        </mxCell>
        <mxCell id="3_Epr1_zHtTMZQ9kOwUO-37" value="" style="endArrow=oval;html=1;rounded=0;endFill=1;" edge="1" parent="1">
          <mxGeometry width="50" height="50" relative="1" as="geometry">
            <mxPoint x="155" y="120" as="sourcePoint" />
            <mxPoint x="155" y="180" as="targetPoint" />
          </mxGeometry>
        </mxCell>
        <mxCell id="SQOY-1cCRjrfb2Pg5QRJ-1" value="Es. 1" style="text;html=1;align=center;verticalAlign=middle;whiteSpace=wrap;rounded=0;" vertex="1" parent="1">
          <mxGeometry x="10" width="60" height="30" as="geometry" />
        </mxCell>
      </root>
    </mxGraphModel>
  </diagram>
  <diagram id="9VBiwDWCLfCJUnLLYc3l" name="Page-2">
    <mxGraphModel dx="945" dy="571" grid="1" gridSize="10" guides="1" tooltips="1" connect="1" arrows="1" fold="1" page="1" pageScale="1" pageWidth="850" pageHeight="1100" math="0" shadow="0">
      <root>
        <mxCell id="0" />
        <mxCell id="1" parent="0" />
        <mxCell id="yE04mt_5PItn41XKsMXE-1" value="&lt;div&gt;cinema&lt;/div&gt;" style="whiteSpace=wrap;html=1;align=center;" vertex="1" parent="1">
          <mxGeometry x="40" y="170" width="100" height="40" as="geometry" />
        </mxCell>
        <mxCell id="yE04mt_5PItn41XKsMXE-2" value="sala" style="whiteSpace=wrap;html=1;align=center;rounded=1;arcSize=50;" vertex="1" parent="1">
          <mxGeometry x="200" y="170" width="100" height="40" as="geometry" />
        </mxCell>
        <mxCell id="yE04mt_5PItn41XKsMXE-3" value="" style="endArrow=none;html=1;rounded=0;exitX=1;exitY=0.5;exitDx=0;exitDy=0;entryX=0;entryY=0.5;entryDx=0;entryDy=0;" edge="1" parent="1" source="yE04mt_5PItn41XKsMXE-1" target="yE04mt_5PItn41XKsMXE-2">
          <mxGeometry relative="1" as="geometry">
            <mxPoint x="80" y="200" as="sourcePoint" />
            <mxPoint x="240" y="200" as="targetPoint" />
          </mxGeometry>
        </mxCell>
        <mxCell id="yE04mt_5PItn41XKsMXE-4" value="(1, N)" style="edgeLabel;html=1;align=center;verticalAlign=middle;resizable=0;points=[];" vertex="1" connectable="0" parent="yE04mt_5PItn41XKsMXE-3">
          <mxGeometry x="0.0508" y="2" relative="1" as="geometry">
            <mxPoint as="offset" />
          </mxGeometry>
        </mxCell>
        <mxCell id="yE04mt_5PItn41XKsMXE-5" value="" style="endArrow=none;html=1;rounded=0;entryX=0.3;entryY=0;entryDx=0;entryDy=0;entryPerimeter=0;" edge="1" parent="1" target="yE04mt_5PItn41XKsMXE-1">
          <mxGeometry width="50" height="50" relative="1" as="geometry">
            <mxPoint x="70" y="50" as="sourcePoint" />
            <mxPoint x="170" y="140" as="targetPoint" />
          </mxGeometry>
        </mxCell>
        <mxCell id="yE04mt_5PItn41XKsMXE-6" value="" style="endArrow=oval;html=1;rounded=0;endFill=0;" edge="1" parent="1">
          <mxGeometry width="50" height="50" relative="1" as="geometry">
            <mxPoint x="70" y="120" as="sourcePoint" />
            <mxPoint x="110" y="120" as="targetPoint" />
          </mxGeometry>
        </mxCell>
        <mxCell id="yE04mt_5PItn41XKsMXE-7" value="" style="endArrow=oval;html=1;rounded=0;endFill=0;" edge="1" parent="1">
          <mxGeometry width="50" height="50" relative="1" as="geometry">
            <mxPoint x="70" y="140" as="sourcePoint" />
            <mxPoint x="110" y="140" as="targetPoint" />
          </mxGeometry>
        </mxCell>
        <mxCell id="yE04mt_5PItn41XKsMXE-8" value="&lt;div&gt;Nome&lt;/div&gt;" style="text;html=1;align=center;verticalAlign=middle;whiteSpace=wrap;rounded=0;" vertex="1" parent="1">
          <mxGeometry x="110" y="40" width="50" height="20" as="geometry" />
        </mxCell>
        <mxCell id="yE04mt_5PItn41XKsMXE-9" value="&lt;div&gt;Indirizzo&lt;/div&gt;" style="text;html=1;align=center;verticalAlign=middle;whiteSpace=wrap;rounded=0;" vertex="1" parent="1">
          <mxGeometry x="115" y="110" width="45" height="20" as="geometry" />
        </mxCell>
        <mxCell id="yE04mt_5PItn41XKsMXE-10" value="Telefono" style="text;html=1;align=center;verticalAlign=middle;whiteSpace=wrap;rounded=0;" vertex="1" parent="1">
          <mxGeometry x="110" y="130" width="62.5" height="20" as="geometry" />
        </mxCell>
        <mxCell id="yE04mt_5PItn41XKsMXE-11" value="" style="endArrow=oval;html=1;rounded=0;endFill=1;entryX=0;entryY=0.5;entryDx=0;entryDy=0;" edge="1" parent="1" target="yE04mt_5PItn41XKsMXE-8">
          <mxGeometry width="50" height="50" relative="1" as="geometry">
            <mxPoint x="70" y="50" as="sourcePoint" />
            <mxPoint x="190" y="80" as="targetPoint" />
          </mxGeometry>
        </mxCell>
        <mxCell id="yE04mt_5PItn41XKsMXE-12" value="" style="endArrow=oval;html=1;rounded=0;endFill=0;" edge="1" parent="1">
          <mxGeometry width="50" height="50" relative="1" as="geometry">
            <mxPoint x="70" y="100" as="sourcePoint" />
            <mxPoint x="110" y="100" as="targetPoint" />
          </mxGeometry>
        </mxCell>
        <mxCell id="yE04mt_5PItn41XKsMXE-13" value="Prezzo" style="text;html=1;align=center;verticalAlign=middle;whiteSpace=wrap;rounded=0;" vertex="1" parent="1">
          <mxGeometry x="115" y="90" width="45" height="20" as="geometry" />
        </mxCell>
        <mxCell id="yE04mt_5PItn41XKsMXE-14" value="" style="endArrow=none;html=1;rounded=0;exitX=0.787;exitY=0.022;exitDx=0;exitDy=0;exitPerimeter=0;" edge="1" parent="1">
          <mxGeometry width="50" height="50" relative="1" as="geometry">
            <mxPoint x="278.70000000000005" y="170" as="sourcePoint" />
            <mxPoint x="280" y="49.120000000000005" as="targetPoint" />
          </mxGeometry>
        </mxCell>
        <mxCell id="yE04mt_5PItn41XKsMXE-15" value="" style="endArrow=oval;html=1;rounded=0;endFill=1;" edge="1" parent="1">
          <mxGeometry width="50" height="50" relative="1" as="geometry">
            <mxPoint x="280" y="50" as="sourcePoint" />
            <mxPoint x="260" y="50" as="targetPoint" />
          </mxGeometry>
        </mxCell>
        <mxCell id="yE04mt_5PItn41XKsMXE-16" value="Nome" style="text;html=1;align=center;verticalAlign=middle;whiteSpace=wrap;rounded=0;" vertex="1" parent="1">
          <mxGeometry x="210" y="42.5" width="40" height="15" as="geometry" />
        </mxCell>
        <mxCell id="yE04mt_5PItn41XKsMXE-17" value="Posti" style="text;html=1;align=center;verticalAlign=middle;whiteSpace=wrap;rounded=0;" vertex="1" parent="1">
          <mxGeometry x="210" y="70" width="40" height="10" as="geometry" />
        </mxCell>
        <mxCell id="yE04mt_5PItn41XKsMXE-18" value="Dim. Schermo" style="text;html=1;align=center;verticalAlign=middle;whiteSpace=wrap;rounded=0;" vertex="1" parent="1">
          <mxGeometry x="205" y="100" width="50" height="10" as="geometry" />
        </mxCell>
        <mxCell id="yE04mt_5PItn41XKsMXE-19" value="Accessiblita&#39;" style="text;html=1;align=center;verticalAlign=middle;whiteSpace=wrap;rounded=0;" vertex="1" parent="1">
          <mxGeometry x="330" y="70" width="70" height="20" as="geometry" />
        </mxCell>
        <mxCell id="yE04mt_5PItn41XKsMXE-20" value="Audio Dolby" style="text;html=1;align=center;verticalAlign=middle;whiteSpace=wrap;rounded=0;" vertex="1" parent="1">
          <mxGeometry x="320" y="115" width="50" height="10" as="geometry" />
        </mxCell>
        <mxCell id="yE04mt_5PItn41XKsMXE-21" value="" style="endArrow=oval;html=1;rounded=0;entryX=1;entryY=0.5;entryDx=0;entryDy=0;endFill=0;" edge="1" parent="1" target="yE04mt_5PItn41XKsMXE-17">
          <mxGeometry width="50" height="50" relative="1" as="geometry">
            <mxPoint x="280" y="75" as="sourcePoint" />
            <mxPoint x="260" y="100" as="targetPoint" />
          </mxGeometry>
        </mxCell>
        <mxCell id="yE04mt_5PItn41XKsMXE-22" value="" style="endArrow=oval;html=1;rounded=0;entryX=0.931;entryY=-0.035;entryDx=0;entryDy=0;entryPerimeter=0;endFill=0;" edge="1" parent="1" target="yE04mt_5PItn41XKsMXE-18">
          <mxGeometry width="50" height="50" relative="1" as="geometry">
            <mxPoint x="280" y="100" as="sourcePoint" />
            <mxPoint x="260" y="100" as="targetPoint" />
          </mxGeometry>
        </mxCell>
        <mxCell id="yE04mt_5PItn41XKsMXE-23" value="" style="endArrow=oval;html=1;rounded=0;entryX=0;entryY=0.5;entryDx=0;entryDy=0;endFill=0;" edge="1" parent="1" target="yE04mt_5PItn41XKsMXE-20">
          <mxGeometry width="50" height="50" relative="1" as="geometry">
            <mxPoint x="280" y="120" as="sourcePoint" />
            <mxPoint x="260" y="100" as="targetPoint" />
          </mxGeometry>
        </mxCell>
        <mxCell id="yE04mt_5PItn41XKsMXE-24" value="" style="endArrow=oval;html=1;rounded=0;entryX=0;entryY=0.5;entryDx=0;entryDy=0;endFill=0;" edge="1" parent="1">
          <mxGeometry width="50" height="50" relative="1" as="geometry">
            <mxPoint x="280" y="80" as="sourcePoint" />
            <mxPoint x="320" y="80" as="targetPoint" />
          </mxGeometry>
        </mxCell>
        <mxCell id="l1C3NAqDo2J8n7NSv1RW-1" value="Es. 2" style="text;html=1;align=center;verticalAlign=middle;whiteSpace=wrap;rounded=0;" vertex="1" parent="1">
          <mxGeometry width="60" height="30" as="geometry" />
        </mxCell>
      </root>
    </mxGraphModel>
  </diagram>
  <diagram id="ndEyftPJ0s-4UivXeJKk" name="Page-3">
    <mxGraphModel dx="945" dy="571" grid="1" gridSize="10" guides="1" tooltips="1" connect="1" arrows="1" fold="1" page="1" pageScale="1" pageWidth="850" pageHeight="1100" math="0" shadow="0">
      <root>
        <mxCell id="0" />
        <mxCell id="1" parent="0" />
      </root>
    </mxGraphModel>
  </diagram>
  <diagram id="HIMUeJtdiO78zuvZQd-g" name="Page-4">
    <mxGraphModel grid="1" page="1" gridSize="10" guides="1" tooltips="1" connect="1" arrows="1" fold="1" pageScale="1" pageWidth="850" pageHeight="1100" math="0" shadow="0">
      <root>
        <mxCell id="0" />
        <mxCell id="1" parent="0" />
      </root>
    </mxGraphModel>
  </diagram>
  <diagram id="0aKFNm6vIeiwMtSZY8fW" name="Page-5">
    <mxGraphModel grid="1" page="1" gridSize="10" guides="1" tooltips="1" connect="1" arrows="1" fold="1" pageScale="1" pageWidth="850" pageHeight="1100" math="0" shadow="0">
      <root>
        <mxCell id="0" />
        <mxCell id="1" parent="0" />
      </root>
    </mxGraphModel>
  </diagram>
  <diagram id="d7-2eDF1bqs4kCWXwkkR" name="Page-6">
    <mxGraphModel grid="1" page="1" gridSize="10" guides="1" tooltips="1" connect="1" arrows="1" fold="1" pageScale="1" pageWidth="850" pageHeight="1100" math="0" shadow="0">
      <root>
        <mxCell id="0" />
        <mxCell id="1" parent="0" />
      </root>
    </mxGraphModel>
  </diagram>
</mxfile>
